# xmcd
#
# Track frame offsets: 
#        150
#        40905
#        60155
#        76972
#        101140
#        124780
#
# Disc length: 2020 seconds
#
# Revision: 1
# Processed by: cddbd v1.5.1PL2 Copyright (c) Steve Scherf et al.
# Submitted via: ExactAudioCopy v0.95b4
#
DISCID=4307e206
DTITLE=Eumir Deodato - Prelude
DYEAR=1972
DGENRE=Jazz
TTITLE0=Also Sprach Zarathustra
TTITLE1=Spirit Of Summer
TTITLE2=Carly and Carole
TTITLE3=Baubles, Bangles And Beads
TTITLE4=Prelude To The Afternoon Of A Faun
TTITLE5=September 13
EXTD=YEAR: 1972
EXTT0=
EXTT1=
EXTT2=
EXTT3=
EXTT4=
EXTT5=
PLAYORDER=
